# xmcd
#
# Track frame offsets:
#	183
#	13143
#	24680
#	36918
#	52820
#	69790
#	81858
#	93330
#	109085
#	120645
#	129798
#	147485
#	165555
#	176153
#	193483
#
# Disc length: 2807
#
# Revision: 1
# Processed by: cddbd v1.5.1PL0 Copyright (c) Steve Scherf et al.
# Submitted via: dBpowerAMP V4.0
# Normalized: r0:TDELIM( - )
#
DISCID=ca0af50f
DTITLE=Various Artist - Lo Mejor del Country I  [CD 1)
DYEAR=1993
DGENRE=Country
TTITLE0=Kenny Rogers - Ruby Don't Take Your Love To Town
TTITLE1=Freddy Fender - Before The Next Teardrop Falls
TTITLE2=Crystal Gayle - Don't It Make My Brown Yeye Blue.
TTITLE3=Willie Nelson - Always On My Mind
TTITLE4=Wynonna - Tell Me Why
TTITLE5=Tammy Wynette - Stand By Your Man
TTITLE6=Patsy Cline - Walking After Midnight
TTITLE7=The Judds - Why Not Me?
TTITLE8=Johnny Cash - A Thing Called Love
TTITLE9=Frankie Laine - Rawhide
TTITLE10=Tanya tucker - The Best Of my Love
TTITLE11=Ricky Nelson - Garden Party
TTITLE12=Kris Kristofferson - Help Me Make It Throught The Night
TTITLE13=Dolly Parton - Silver And Gold
TTITLE14=Dr. Hook - Sylvia's mother
EXTD=
EXTT0=
EXTT1=
EXTT2=
EXTT3=
EXTT4=
EXTT5=
EXTT6=
EXTT7=
EXTT8=
EXTT9=
EXTT10=
EXTT11=
EXTT12=
EXTT13=
EXTT14=
PLAYORDER=
